<svg id="svg" version="1.1" xmlns="http://www.w3.org/2000/svg" xmlns:xlink="http://www.w3.org/1999/xlink" width="400" height="650" viewBox="0, 0, 400,650"><g id="svgg"><path id="path0" d="M203.826 227.282 C 202.180 228.113,197.665 229.768,195.102 230.480 C 193.799 230.842,193.550 231.110,193.181 232.548 C 188.529 250.694,187.898 252.112,182.702 256.083 C 181.215 257.220,180.712 258.526,177.153 270.496 C 175.724 275.303,173.869 278.281,170.968 280.424 C 169.749 281.324,168.685 282.272,168.604 282.531 C 167.490 286.084,165.405 292.969,164.588 295.794 C 163.241 300.455,162.527 301.625,158.973 305.000 L 156.025 307.800 153.581 316.400 C 150.769 326.290,150.191 327.459,146.481 330.756 L 143.758 333.176 141.842 339.288 C 140.788 342.650,139.567 346.570,139.129 348.000 C 138.374 350.463,135.862 354.800,135.191 354.800 C 132.917 354.800,130.904 359.008,126.848 372.239 C 125.507 376.614,124.667 377.918,121.081 381.196 C 118.690 383.381,117.155 387.183,115.068 396.085 C 114.108 400.184,112.570 402.894,109.168 406.484 C 105.866 409.968,104.733 412.468,102.592 421.000 C 101.613 424.902,100.109 427.865,98.000 430.045 C 93.374 434.829,92.248 437.078,90.211 445.600 C 89.250 449.616,87.788 452.547,85.530 454.983 C 80.737 460.153,80.566 460.507,77.973 470.707 C 77.335 473.215,76.350 476.119,75.784 477.159 C 74.738 479.081,74.485 479.411,70.555 484.000 C 68.250 486.690,66.829 489.812,65.796 494.456 C 64.368 500.871,61.080 506.771,57.023 510.200 C 55.976 511.085,53.970 516.381,52.951 520.952 C 52.225 524.206,50.455 528.198,48.937 530.002 C 47.672 531.506,47.537 531.372,51.780 532.816 L 55.262 534.000 87.331 533.990 L 119.400 533.980 121.236 532.633 C 122.708 531.552,123.179 530.900,123.611 529.342 C 124.690 525.450,126.423 522.730,129.053 520.800 C 131.252 519.187,131.570 518.771,132.113 516.800 C 132.447 515.590,133.458 512.185,134.360 509.232 C 135.262 506.280,136.000 503.699,136.000 503.497 C 136.000 501.329,139.446 496.320,142.300 494.341 C 143.235 493.692,144.000 492.925,144.000 492.635 C 144.000 491.770,147.111 483.756,148.564 480.877 C 151.552 474.957,153.637 473.795,162.697 472.995 C 173.252 472.064,242.638 472.123,245.429 473.066 C 249.798 474.541,251.195 475.966,254.189 482.000 C 255.226 484.090,256.283 485.873,256.537 485.963 C 259.587 487.038,266.400 500.328,266.400 505.203 C 266.400 506.934,268.745 511.469,270.639 513.400 C 273.707 516.529,276.790 522.526,278.048 527.814 C 278.691 530.515,279.187 531.696,280.058 532.600 L 281.215 533.800 315.708 533.800 C 352.530 533.800,355.801 533.677,357.481 532.232 L 358.523 531.335 357.393 529.258 C 356.769 528.111,355.668 526.813,354.938 526.362 C 351.697 524.359,348.698 518.679,346.565 510.507 C 344.993 504.481,344.463 503.316,342.644 501.886 C 338.770 498.842,335.657 492.684,333.746 484.283 C 332.780 480.037,331.916 478.337,329.951 476.820 C 326.444 474.114,323.678 468.727,321.576 460.510 C 320.315 455.583,319.137 452.906,317.842 452.029 C 314.416 449.705,310.833 442.969,309.105 435.600 C 308.243 431.924,306.476 427.200,305.962 427.200 C 303.669 427.200,298.798 418.177,296.782 410.195 C 295.699 405.908,293.951 401.600,293.293 401.600 C 290.746 401.598,283.600 387.395,283.600 382.335 C 283.600 380.813,281.518 377.523,278.889 374.892 C 275.689 371.688,273.394 366.929,271.739 360.063 C 270.642 355.508,269.005 351.719,267.996 351.399 C 266.839 351.032,264.487 348.239,263.280 345.800 C 260.775 340.739,259.605 337.446,258.796 333.177 C 258.162 329.837,256.610 326.920,254.210 324.558 C 251.058 321.456,246.400 311.149,246.400 307.275 C 246.400 305.573,244.145 301.667,241.970 299.600 C 238.681 296.474,235.497 290.017,234.236 283.913 C 233.358 279.662,232.008 277.037,229.260 274.237 C 225.772 270.683,222.827 264.535,221.579 258.200 C 220.904 254.775,219.246 251.795,216.333 248.768 C 213.334 245.651,210.856 240.597,209.552 234.936 C 208.636 230.960,206.667 226.378,205.904 226.444 C 205.627 226.468,204.692 226.845,203.826 227.282 M209.127 352.820 C 212.292 356.114,214.209 360.685,216.165 369.600 C 217.788 377.002,219.190 380.053,221.869 382.019 C 225.068 384.364,226.421 387.534,229.205 399.200 C 230.826 405.991,231.311 407.304,232.727 408.733 C 235.932 411.970,238.103 418.092,236.795 420.208 C 232.929 426.464,227.281 427.600,200.052 427.600 C 176.584 427.600,174.501 427.180,169.354 421.410 C 166.973 418.741,166.863 418.429,167.956 417.440 C 169.036 416.463,170.700 411.495,171.838 405.854 C 173.801 396.129,176.625 389.501,180.028 386.638 C 181.702 385.229,182.584 383.010,183.950 376.772 C 186.980 362.933,188.599 360.031,195.800 355.535 C 204.173 350.308,206.297 349.875,209.127 352.820 " stroke="none" fill="#41c0a3" fill-rule="evenodd"></path><path id="path1" d="M204.183 216.781 C 203.092 217.617,201.570 219.155,200.800 220.199 C 200.030 221.243,197.825 223.438,195.899 225.077 C 190.424 229.736,190.246 230.054,187.759 239.588 C 186.155 245.736,184.666 248.820,181.777 251.985 C 178.234 255.864,177.152 258.069,175.004 265.800 C 173.517 271.146,172.211 273.622,168.987 277.201 C 165.846 280.686,164.932 282.557,162.791 289.880 C 160.878 296.423,159.544 299.003,156.053 302.912 C 153.146 306.167,152.148 308.408,150.398 315.600 C 148.965 321.492,147.414 324.398,143.536 328.452 C 140.733 331.384,139.762 333.509,137.805 341.000 C 136.391 346.411,134.783 349.451,131.398 353.115 C 128.250 356.522,127.187 358.790,125.359 366.000 C 124.039 371.202,122.335 374.400,118.954 378.021 C 115.755 381.444,115.069 382.910,113.156 390.400 C 111.612 396.447,109.816 399.977,106.523 403.434 C 103.751 406.343,103.108 407.523,101.633 412.400 C 99.207 420.421,98.677 421.918,97.590 423.817 C 96.947 424.942,95.362 427.018,94.068 428.431 C 90.866 431.928,89.631 434.599,87.792 442.000 C 86.788 446.042,84.518 450.258,81.766 453.190 C 78.478 456.694,77.428 458.997,75.592 466.730 C 74.537 471.171,72.375 475.399,69.244 479.143 C 66.296 482.668,64.773 485.735,63.397 490.920 C 62.105 495.788,59.368 501.199,56.613 504.334 C 53.569 507.796,52.392 510.263,50.757 516.600 C 49.481 521.547,46.995 526.193,43.838 529.532 L 42.200 531.263 43.600 532.463 C 45.402 534.006,48.666 535.665,52.200 536.834 L 55.000 537.760 86.854 537.909 L 118.707 538.059 122.432 536.811 C 131.023 533.932,133.604 531.073,136.458 521.276 C 138.416 514.552,140.681 510.061,143.927 506.467 C 145.567 504.650,147.796 499.959,148.829 496.151 C 150.940 488.365,154.421 483.463,159.690 480.858 C 166.858 477.313,162.770 477.600,206.022 477.600 L 244.320 477.600 246.401 479.164 C 247.602 480.066,249.052 481.674,249.831 482.968 C 251.327 485.451,254.120 489.320,255.187 490.387 C 257.536 492.736,261.523 500.488,263.422 506.400 C 265.228 512.024,266.354 514.406,269.185 518.600 C 272.257 523.151,273.086 524.686,274.795 528.988 C 278.416 538.102,278.692 538.151,325.600 537.927 L 356.200 537.782 358.200 536.733 C 360.321 535.620,363.441 532.732,363.823 531.527 C 364.534 529.287,359.715 518.267,356.389 514.527 C 353.506 511.286,352.230 509.117,351.140 505.603 C 347.576 494.117,347.019 492.917,343.268 488.636 C 340.565 485.551,339.467 483.527,338.192 479.284 C 335.225 469.404,334.555 467.966,331.140 464.151 C 328.813 461.552,326.000 456.834,326.000 455.531 C 326.000 452.140,321.783 442.660,318.821 439.391 C 317.523 437.958,315.988 435.941,315.410 434.907 C 314.314 432.946,314.102 432.342,311.855 424.787 C 309.963 418.425,309.690 417.874,306.445 413.868 C 302.849 409.429,302.539 408.808,299.825 400.585 C 297.491 393.515,296.920 392.394,293.823 388.800 C 291.109 385.651,289.764 383.149,288.362 378.644 C 285.866 370.621,284.511 367.620,282.125 364.829 C 278.286 360.335,277.396 358.623,274.789 350.705 C 272.268 343.053,271.739 342.040,268.011 337.742 C 265.637 335.004,264.397 332.247,262.387 325.234 C 260.345 318.108,259.118 315.561,256.125 312.232 C 253.787 309.631,252.834 307.688,250.193 300.126 C 247.422 292.192,246.954 291.251,243.971 287.600 C 240.874 283.809,240.465 282.992,237.715 275.091 C 235.218 267.916,234.264 266.069,231.038 262.157 C 228.745 259.378,227.270 256.654,226.273 253.358 C 224.107 246.198,222.348 242.112,220.206 239.266 C 216.405 234.214,215.251 232.346,214.208 229.558 C 209.332 216.519,207.526 214.217,204.183 216.781 M207.572 228.900 C 208.213 230.275,209.103 232.991,209.552 234.936 C 210.856 240.597,213.334 245.651,216.333 248.768 C 219.246 251.795,220.904 254.775,221.579 258.200 C 222.827 264.535,225.772 270.683,229.260 274.237 C 232.008 277.037,233.358 279.662,234.236 283.913 C 235.497 290.017,238.681 296.474,241.970 299.600 C 244.145 301.667,246.400 305.573,246.400 307.275 C 246.400 311.149,251.058 321.456,254.210 324.558 C 256.610 326.920,258.162 329.837,258.796 333.177 C 260.304 341.132,265.010 350.451,267.996 351.399 C 269.005 351.719,270.642 355.508,271.739 360.063 C 273.394 366.929,275.689 371.688,278.889 374.892 C 281.518 377.523,283.600 380.813,283.600 382.335 C 283.600 387.395,290.746 401.598,293.293 401.600 C 293.951 401.600,295.699 405.908,296.782 410.195 C 298.798 418.177,303.669 427.200,305.962 427.200 C 306.476 427.200,308.243 431.924,309.105 435.600 C 310.833 442.969,314.416 449.705,317.842 452.029 C 319.137 452.906,320.315 455.583,321.576 460.510 C 323.678 468.727,326.444 474.114,329.951 476.820 C 331.916 478.337,332.780 480.037,333.746 484.283 C 335.657 492.684,338.770 498.842,342.644 501.886 C 344.463 503.316,344.993 504.481,346.565 510.507 C 348.698 518.679,351.697 524.359,354.938 526.362 C 355.668 526.813,356.769 528.111,357.393 529.258 L 358.523 531.335 357.481 532.232 C 355.801 533.677,352.530 533.800,315.708 533.800 L 281.215 533.800 280.058 532.600 C 279.187 531.696,278.691 530.515,278.048 527.814 C 276.790 522.526,273.707 516.529,270.639 513.400 C 268.745 511.469,266.400 506.934,266.400 505.203 C 266.400 500.328,259.587 487.038,256.537 485.963 C 256.283 485.873,255.226 484.090,254.189 482.000 C 251.195 475.966,249.798 474.541,245.429 473.066 C 242.638 472.123,173.252 472.064,162.697 472.995 C 153.637 473.795,151.552 474.957,148.564 480.877 C 147.111 483.756,144.000 491.770,144.000 492.635 C 144.000 492.925,143.235 493.692,142.300 494.341 C 139.446 496.320,136.000 501.329,136.000 503.497 C 136.000 503.699,135.262 506.280,134.360 509.232 C 133.458 512.185,132.447 515.590,132.113 516.800 C 131.570 518.771,131.252 519.187,129.053 520.800 C 126.423 522.730,124.690 525.450,123.611 529.342 C 123.179 530.900,122.708 531.552,121.236 532.633 L 119.400 533.980 87.331 533.990 L 55.262 534.000 51.780 532.816 C 47.537 531.372,47.672 531.506,48.937 530.002 C 50.455 528.198,52.225 524.206,52.951 520.952 C 53.970 516.381,55.976 511.085,57.023 510.200 C 61.080 506.771,64.368 500.871,65.796 494.456 C 66.829 489.812,68.250 486.690,70.555 484.000 C 74.485 479.411,74.738 479.081,75.784 477.159 C 76.350 476.119,77.335 473.215,77.973 470.707 C 80.566 460.507,80.737 460.153,85.530 454.983 C 87.788 452.547,89.250 449.616,90.211 445.600 C 92.248 437.078,93.374 434.829,98.000 430.045 C 100.109 427.865,101.613 424.902,102.592 421.000 C 104.733 412.468,105.866 409.968,109.168 406.484 C 112.570 402.894,114.108 400.184,115.068 396.085 C 117.155 387.183,118.690 383.381,121.081 381.196 C 124.667 377.918,125.507 376.614,126.848 372.239 C 130.904 359.008,132.917 354.800,135.191 354.800 C 135.862 354.800,138.374 350.463,139.129 348.000 C 139.567 346.570,140.788 342.650,141.842 339.288 L 143.758 333.176 146.481 330.756 C 150.191 327.459,150.769 326.290,153.581 316.400 L 156.025 307.800 158.973 305.000 C 162.527 301.625,163.241 300.455,164.588 295.794 C 165.405 292.969,167.490 286.084,168.604 282.531 C 168.685 282.272,169.749 281.324,170.968 280.424 C 173.869 278.281,175.724 275.303,177.153 270.496 C 180.712 258.526,181.215 257.220,182.702 256.083 C 187.898 252.112,188.529 250.694,193.181 232.548 C 193.550 231.110,193.799 230.842,195.102 230.480 C 197.665 229.768,202.180 228.113,203.826 227.282 C 206.149 226.109,206.303 226.176,207.572 228.900 M203.193 351.630 C 191.003 356.349,187.387 361.073,183.950 376.772 C 182.584 383.010,181.702 385.229,180.028 386.638 C 176.625 389.501,173.801 396.129,171.838 405.854 C 170.700 411.495,169.036 416.463,167.956 417.440 C 166.863 418.429,166.973 418.741,169.354 421.410 C 174.501 427.180,176.584 427.600,200.052 427.600 C 227.281 427.600,232.929 426.464,236.795 420.208 C 238.103 418.092,235.932 411.970,232.727 408.733 C 231.311 407.304,230.826 405.991,229.205 399.200 C 226.421 387.534,225.068 384.364,221.869 382.019 C 219.190 380.053,217.788 377.002,216.165 369.600 C 214.209 360.685,212.292 356.114,209.127 352.820 C 206.761 350.358,206.574 350.320,203.193 351.630 M208.611 359.618 C 210.626 362.935,212.317 367.249,213.215 371.367 C 214.924 379.196,215.751 381.111,218.832 384.364 C 221.809 387.508,224.466 392.275,224.983 395.400 C 226.277 403.237,229.004 412.506,230.660 414.700 C 231.520 415.839,232.800 418.399,232.800 418.978 C 232.800 421.321,225.274 422.138,202.232 422.297 C 179.577 422.453,180.234 422.513,177.904 420.075 L 176.495 418.600 177.634 412.055 C 178.761 405.587,178.798 405.474,180.784 402.547 C 184.378 397.250,185.030 395.649,187.555 385.926 C 189.330 379.086,190.783 375.648,193.183 372.600 C 194.049 371.500,195.620 369.340,196.675 367.800 C 199.173 364.151,201.621 361.099,204.126 358.512 C 206.454 356.109,206.484 356.116,208.611 359.618 " stroke="none" fill="#419e5d" fill-rule="evenodd"></path><path id="path2" d="M198.000 209.469 C 188.506 210.428,184.707 215.190,182.995 228.280 C 182.193 234.413,181.672 235.587,179.239 236.742 C 174.577 238.955,170.400 247.310,170.400 254.422 C 170.400 257.745,168.982 260.501,166.643 261.725 C 162.002 264.152,158.985 269.912,158.013 278.200 C 157.329 284.039,156.736 285.342,154.203 286.581 C 149.974 288.650,146.875 294.137,145.828 301.405 C 144.584 310.047,144.237 310.990,141.787 312.373 C 137.821 314.611,134.506 320.262,133.426 326.627 C 131.922 335.491,131.821 335.750,129.220 337.355 C 126.769 338.868,125.450 340.335,124.057 343.100 C 123.586 344.035,122.823 345.546,122.362 346.459 C 121.902 347.371,121.246 349.846,120.906 351.959 C 119.706 359.415,119.170 360.872,117.233 361.950 C 112.694 364.478,108.035 373.122,108.006 379.070 C 107.992 381.920,106.394 387.474,105.466 387.897 C 103.927 388.598,102.003 390.437,100.591 392.555 C 99.841 393.680,98.756 395.175,98.180 395.878 C 97.172 397.106,95.621 401.957,95.607 403.925 C 95.578 407.878,93.883 412.341,91.931 413.606 C 90.837 414.315,89.243 415.915,88.292 417.259 C 87.361 418.574,86.135 420.313,85.567 421.125 C 84.579 422.535,83.517 425.975,83.011 429.400 C 82.086 435.667,81.530 437.234,79.863 438.287 C 77.774 439.605,76.796 440.581,75.238 442.900 C 74.536 443.945,73.822 444.800,73.652 444.800 C 72.515 444.800,71.237 449.503,69.738 459.200 L 69.027 463.800 65.948 466.800 C 64.255 468.450,62.315 470.250,61.637 470.800 C 60.344 471.849,59.030 474.763,58.407 477.962 C 58.211 478.973,57.659 482.005,57.182 484.700 C 56.705 487.395,56.186 489.600,56.029 489.600 C 55.872 489.600,54.558 490.725,53.111 492.100 C 51.663 493.475,49.916 495.022,49.229 495.538 C 47.149 497.102,46.790 498.196,44.761 509.142 L 43.845 514.084 41.103 516.842 C 39.595 518.359,38.202 519.600,38.006 519.600 C 36.000 519.600,33.147 526.212,33.133 530.892 C 33.113 537.619,35.856 540.777,42.816 542.041 C 46.532 542.716,121.860 542.862,124.739 542.200 C 125.928 541.926,115.497 541.843,91.739 541.936 C 55.553 542.078,51.998 541.958,45.491 540.378 C 33.440 537.451,32.075 526.979,43.284 523.453 C 44.778 522.983,46.119 519.276,46.632 514.200 C 46.899 511.560,47.237 508.619,47.383 507.665 C 47.987 503.729,51.311 499.740,54.761 498.810 C 57.034 498.198,58.624 495.024,58.975 490.400 C 59.765 479.985,61.265 476.709,66.372 474.248 C 69.753 472.618,71.046 470.494,71.407 465.976 C 71.996 458.615,72.385 455.500,72.774 455.031 C 73.005 454.754,73.119 454.453,73.029 454.363 C 72.129 453.463,76.967 449.294,79.880 448.461 C 82.504 447.710,83.849 444.564,84.181 438.400 C 84.679 429.172,86.251 425.901,91.117 423.975 C 95.405 422.278,96.131 420.769,96.766 412.229 C 97.400 403.707,99.225 400.422,104.348 398.580 C 107.491 397.450,108.637 395.230,108.983 389.600 C 109.425 382.410,109.626 381.061,110.568 378.980 C 111.658 376.573,114.063 374.527,116.953 373.548 C 120.501 372.347,121.273 370.319,121.807 360.800 C 122.198 353.838,124.509 349.947,128.956 348.763 C 132.653 347.779,133.798 345.371,134.168 337.800 C 134.455 331.938,134.652 330.528,135.304 329.700 C 135.521 329.425,135.582 329.200,135.440 329.200 C 133.968 329.200,138.575 325.003,141.200 323.952 C 145.425 322.261,146.209 320.723,146.583 313.400 C 147.089 303.501,148.618 300.109,153.538 297.979 C 154.562 297.536,155.670 297.025,156.000 296.844 C 157.251 296.159,158.106 293.933,158.448 290.473 C 159.304 281.796,159.393 281.303,160.614 278.536 C 162.020 275.348,164.132 273.511,168.084 272.036 C 169.653 271.451,170.655 269.144,170.964 265.400 C 172.003 252.826,173.563 249.875,180.582 247.207 C 182.352 246.534,183.048 244.352,183.730 237.345 C 184.422 230.229,185.465 226.758,187.471 224.899 C 188.672 223.786,192.222 222.010,193.258 222.004 C 194.102 221.999,196.148 218.733,196.769 216.400 C 197.440 213.884,199.539 211.169,201.636 210.106 L 203.400 209.211 201.400 209.270 C 200.300 209.302,198.770 209.392,198.000 209.469 M204.674 366.253 C 203.863 367.712,203.199 369.377,203.197 369.953 C 203.195 370.529,202.837 372.170,202.400 373.600 C 201.963 375.030,201.605 376.251,201.603 376.314 C 201.596 376.574,203.094 375.561,204.400 374.422 C 206.495 372.596,206.302 372.286,207.374 379.200 C 208.805 388.427,209.592 391.866,210.395 392.400 C 210.560 392.510,211.169 393.539,211.748 394.687 C 212.998 397.166,215.026 399.291,217.200 400.400 C 219.789 401.721,220.700 406.502,219.127 410.515 L 218.690 411.631 205.573 411.515 C 193.102 411.406,192.487 411.434,193.090 412.100 C 193.668 412.738,194.829 412.800,206.257 412.800 L 218.790 412.800 219.782 411.228 C 221.427 408.622,221.727 406.571,221.486 399.572 L 221.266 393.188 219.933 391.362 C 218.925 389.981,218.047 389.314,216.334 388.626 C 213.320 387.417,211.903 386.208,210.676 383.800 C 209.642 381.770,209.480 380.730,208.974 372.853 C 208.740 369.216,207.099 363.600,206.270 363.600 C 206.204 363.600,205.485 364.794,204.674 366.253 M168.704 487.430 C 168.577 487.556,167.422 488.106,166.137 488.652 C 164.238 489.459,164.063 489.603,165.200 489.425 C 165.970 489.303,167.770 489.034,169.200 488.826 C 172.003 488.418,238.420 488.252,241.845 488.644 L 243.890 488.878 245.141 492.739 C 245.828 494.863,246.572 497.337,246.794 498.238 C 247.646 501.699,250.639 504.323,254.600 505.082 C 256.471 505.441,256.690 505.812,256.975 509.111 C 258.336 524.850,260.304 528.849,267.400 530.296 L 269.000 530.622 269.479 533.507 C 270.210 537.903,271.161 539.716,273.272 540.738 C 276.872 542.481,277.607 542.518,311.400 542.681 C 353.435 542.884,362.855 542.464,365.000 540.288 C 365.270 540.014,365.139 539.981,364.600 540.186 C 360.359 541.796,361.251 541.758,325.008 541.898 C 274.558 542.093,273.902 541.993,271.844 533.801 C 270.876 529.947,268.992 525.975,268.009 525.718 C 267.564 525.602,267.200 525.348,267.200 525.153 C 267.200 524.959,266.937 524.800,266.615 524.800 C 263.609 524.800,260.253 517.857,259.172 509.400 C 258.463 503.860,256.888 500.554,254.160 498.878 C 252.914 498.113,251.468 496.765,250.725 495.678 C 250.019 494.645,248.744 493.083,247.891 492.206 C 247.038 491.329,245.948 490.098,245.470 489.471 C 244.991 488.844,244.362 488.076,244.071 487.765 C 243.533 487.189,169.275 486.858,168.704 487.430 M141.701 521.800 C 141.705 522.680,141.787 522.993,141.883 522.495 C 141.979 521.998,141.975 521.278,141.875 520.895 C 141.775 520.513,141.696 520.920,141.701 521.800 " stroke="none" fill="#242c4c" fill-rule="evenodd"></path><path id="path3" d="M0.000 325.000 L 0.000 650.000 200.000 650.000 L 400.000 650.000 400.000 325.000 L 400.000 0.000 200.000 0.000 L 0.000 0.000 0.000 325.000 M210.667 210.133 C 213.267 211.450,214.930 213.464,215.795 216.340 C 217.831 223.110,218.587 224.840,219.851 225.627 C 221.317 226.538,224.400 229.786,224.400 230.418 C 224.400 230.657,224.837 231.427,225.372 232.127 C 226.844 234.057,227.957 236.963,228.442 240.140 C 229.289 245.691,231.030 250.181,232.787 251.344 C 233.639 251.908,234.841 253.051,235.458 253.884 C 236.076 254.718,237.164 256.100,237.877 256.955 C 239.286 258.648,240.616 262.241,241.003 265.400 C 241.409 268.712,243.668 275.168,244.515 275.436 C 248.042 276.556,252.567 284.201,253.610 290.800 C 254.185 294.443,256.195 300.535,256.893 300.755 C 257.535 300.956,261.023 304.507,262.600 306.566 C 264.265 308.740,265.454 311.836,266.026 315.494 C 266.293 317.202,267.006 320.509,267.610 322.843 L 268.707 327.086 272.499 330.843 C 276.539 334.846,277.481 336.419,278.338 340.600 C 280.462 350.950,282.735 356.321,285.031 356.415 C 286.955 356.493,289.867 361.113,290.821 365.600 C 291.219 367.470,292.040 370.890,292.646 373.200 L 293.748 377.400 297.242 380.600 C 301.361 384.373,302.521 386.355,303.559 391.400 C 305.696 401.776,306.893 404.088,311.881 407.470 C 313.489 408.560,315.120 412.109,316.012 416.462 C 316.479 418.738,317.293 422.726,317.822 425.324 C 318.982 431.031,318.723 430.589,321.737 431.978 C 326.578 434.208,328.028 437.513,330.765 452.555 C 331.290 455.442,331.510 455.717,334.329 457.008 C 339.126 459.204,340.516 462.295,343.049 476.400 C 343.743 480.262,344.105 480.803,346.769 481.948 C 351.541 484.001,352.436 485.983,355.553 501.400 C 356.324 505.213,356.828 505.981,359.200 506.962 C 361.417 507.879,364.523 511.102,365.123 513.107 C 365.369 513.928,366.272 517.414,367.131 520.852 C 368.639 526.890,368.749 527.156,370.329 528.583 C 372.797 530.813,372.817 531.342,370.520 533.746 C 369.440 534.875,368.319 536.281,368.028 536.868 C 365.184 542.613,362.134 542.926,311.400 542.681 C 269.680 542.480,271.019 542.773,269.479 533.507 L 269.000 530.622 267.400 530.296 C 260.304 528.849,258.336 524.850,256.975 509.111 C 256.690 505.812,256.471 505.441,254.600 505.082 C 250.639 504.323,247.646 501.699,246.794 498.238 C 246.572 497.337,245.828 494.863,245.141 492.739 L 243.890 488.878 241.845 488.644 C 238.201 488.227,171.991 488.420,169.000 488.857 C 165.561 489.358,163.122 489.744,159.120 490.418 L 156.039 490.937 155.220 492.843 C 154.769 493.891,154.399 495.255,154.398 495.874 C 154.382 505.903,150.989 513.210,145.504 515.032 C 143.235 515.786,142.036 517.689,141.996 520.600 C 141.815 533.753,138.536 539.288,129.895 541.023 C 128.303 541.343,126.010 541.829,124.800 542.102 C 121.475 542.854,46.996 542.798,42.816 542.040 C 35.857 540.779,33.113 537.619,33.133 530.892 C 33.147 526.212,36.000 519.600,38.006 519.600 C 38.202 519.600,39.595 518.359,41.103 516.842 L 43.845 514.084 44.761 509.142 C 46.790 498.196,47.149 497.102,49.229 495.538 C 49.916 495.022,51.663 493.475,53.111 492.100 C 54.558 490.725,55.872 489.600,56.029 489.600 C 56.186 489.600,56.705 487.395,57.182 484.700 C 57.659 482.005,58.211 478.973,58.407 477.962 C 59.030 474.763,60.344 471.849,61.637 470.800 C 62.315 470.250,64.255 468.450,65.948 466.800 L 69.027 463.800 69.738 459.200 C 71.237 449.503,72.515 444.800,73.652 444.800 C 73.822 444.800,74.536 443.945,75.238 442.900 C 76.796 440.581,77.774 439.605,79.863 438.287 C 81.530 437.234,82.086 435.667,83.011 429.400 C 83.517 425.975,84.579 422.535,85.567 421.125 C 86.135 420.313,87.361 418.574,88.292 417.259 C 89.243 415.915,90.837 414.315,91.931 413.606 C 93.883 412.341,95.578 407.878,95.607 403.925 C 95.621 401.957,97.172 397.106,98.180 395.878 C 98.756 395.175,99.841 393.680,100.591 392.555 C 102.003 390.437,103.927 388.598,105.466 387.897 C 106.394 387.474,107.992 381.920,108.006 379.070 C 108.035 373.122,112.694 364.478,117.233 361.950 C 119.170 360.872,119.706 359.415,120.906 351.959 C 121.246 349.846,121.902 347.371,122.362 346.459 C 122.823 345.546,123.586 344.035,124.057 343.100 C 125.450 340.335,126.769 338.868,129.220 337.355 C 131.821 335.750,131.922 335.491,133.426 326.627 C 134.506 320.262,137.821 314.611,141.787 312.373 C 144.237 310.990,144.584 310.047,145.828 301.405 C 146.875 294.137,149.974 288.650,154.203 286.581 C 156.736 285.342,157.329 284.039,158.013 278.200 C 158.985 269.912,162.002 264.152,166.643 261.725 C 168.982 260.501,170.400 257.745,170.400 254.422 C 170.400 247.310,174.577 238.955,179.239 236.742 C 181.672 235.587,182.193 234.413,182.995 228.280 C 184.810 214.407,187.966 210.771,199.400 209.382 C 205.357 208.658,208.121 208.842,210.667 210.133 M204.196 374.592 C 203.318 375.358,202.472 375.988,202.316 375.992 C 202.160 375.997,201.350 376.739,200.516 377.642 C 199.682 378.546,197.999 379.791,196.776 380.410 C 193.830 381.900,193.760 382.012,193.008 386.407 C 192.651 388.493,192.196 390.830,191.997 391.600 C 191.798 392.370,191.442 394.620,191.206 396.600 C 190.970 398.580,190.414 401.621,189.970 403.358 C 189.079 406.853,189.228 407.593,191.348 410.200 L 192.323 411.400 205.507 411.515 L 218.690 411.631 219.127 410.515 C 220.700 406.502,219.789 401.721,217.200 400.400 C 215.026 399.291,212.998 397.166,211.748 394.687 C 211.169 393.539,210.560 392.510,210.395 392.400 C 209.592 391.866,208.805 388.427,207.374 379.200 C 206.294 372.232,206.521 372.563,204.196 374.592 " stroke="none" fill="#242434" fill-rule="evenodd"></path><path id="path4" d="M203.952 209.203 C 200.417 210.089,197.847 212.726,196.676 216.668 C 195.930 219.180,194.119 221.999,193.247 222.004 C 192.220 222.010,188.666 223.792,187.471 224.899 C 185.465 226.758,184.422 230.229,183.730 237.345 C 183.048 244.352,182.352 246.534,180.582 247.207 C 173.563 249.875,172.003 252.826,170.964 265.400 C 170.655 269.144,169.653 271.451,168.084 272.036 C 164.132 273.511,162.020 275.348,160.614 278.536 C 159.393 281.303,159.304 281.796,158.448 290.473 C 158.106 293.933,157.251 296.159,156.000 296.844 C 155.670 297.025,154.562 297.536,153.538 297.979 C 148.618 300.109,147.089 303.501,146.583 313.400 C 146.209 320.723,145.425 322.261,141.200 323.952 C 138.575 325.003,133.968 329.200,135.440 329.200 C 135.582 329.200,135.521 329.425,135.304 329.700 C 134.652 330.528,134.455 331.938,134.168 337.800 C 133.798 345.371,132.653 347.779,128.956 348.763 C 124.509 349.947,122.198 353.838,121.807 360.800 C 121.273 370.319,120.501 372.347,116.953 373.548 C 114.063 374.527,111.658 376.573,110.568 378.980 C 109.626 381.061,109.425 382.410,108.983 389.600 C 108.637 395.230,107.491 397.450,104.348 398.580 C 99.225 400.422,97.400 403.707,96.766 412.229 C 96.131 420.769,95.405 422.278,91.117 423.975 C 86.251 425.901,84.679 429.172,84.181 438.400 C 83.849 444.564,82.504 447.710,79.880 448.461 C 76.967 449.294,72.129 453.463,73.029 454.363 C 73.119 454.453,73.005 454.754,72.774 455.031 C 72.385 455.500,71.996 458.615,71.407 465.976 C 71.046 470.494,69.753 472.618,66.372 474.248 C 61.265 476.709,59.765 479.985,58.975 490.400 C 58.624 495.024,57.034 498.198,54.761 498.810 C 51.311 499.740,47.987 503.729,47.383 507.665 C 47.237 508.619,46.899 511.560,46.632 514.200 C 46.119 519.276,44.778 522.983,43.284 523.453 C 32.075 526.979,33.440 537.451,45.491 540.378 C 52.043 541.969,55.483 542.082,91.800 541.895 C 141.383 541.639,140.057 542.130,141.576 523.486 C 142.067 517.465,142.782 515.936,145.534 515.022 C 151.177 513.148,153.254 508.790,154.199 496.845 C 154.564 492.230,155.396 490.968,158.313 490.603 C 161.134 490.251,165.705 488.967,167.625 487.987 C 169.672 486.943,243.103 486.730,244.071 487.765 C 244.362 488.076,244.991 488.844,245.470 489.471 C 245.948 490.098,247.038 491.329,247.891 492.206 C 248.744 493.083,250.019 494.645,250.725 495.678 C 251.468 496.765,252.914 498.113,254.160 498.878 C 256.888 500.554,258.463 503.860,259.172 509.400 C 260.253 517.857,263.609 524.800,266.615 524.800 C 266.937 524.800,267.200 524.959,267.200 525.153 C 267.200 525.348,267.564 525.602,268.009 525.718 C 268.992 525.975,270.876 529.947,271.844 533.801 C 273.185 539.136,276.151 541.013,284.200 541.619 C 290.640 542.103,356.824 542.068,359.400 541.579 C 364.476 540.614,368.400 538.287,368.400 536.241 C 368.400 536.012,369.319 534.895,370.441 533.758 C 372.826 531.344,372.815 530.829,370.329 528.583 C 368.749 527.156,368.639 526.890,367.131 520.852 C 366.272 517.414,365.369 513.928,365.123 513.107 C 364.523 511.102,361.417 507.879,359.200 506.962 C 356.828 505.981,356.324 505.213,355.553 501.400 C 352.436 485.983,351.541 484.001,346.769 481.948 C 344.105 480.803,343.743 480.262,343.049 476.400 C 340.516 462.295,339.126 459.204,334.329 457.008 C 331.510 455.717,331.290 455.442,330.765 452.555 C 328.028 437.513,326.578 434.208,321.737 431.978 C 318.723 430.589,318.982 431.031,317.822 425.324 C 317.293 422.726,316.479 418.738,316.012 416.462 C 315.120 412.109,313.489 408.560,311.881 407.470 C 306.893 404.088,305.696 401.776,303.559 391.400 C 302.521 386.355,301.361 384.373,297.242 380.600 L 293.748 377.400 292.646 373.200 C 292.040 370.890,291.219 367.470,290.821 365.600 C 289.867 361.113,286.955 356.493,285.031 356.415 C 282.735 356.321,280.462 350.950,278.338 340.600 C 277.481 336.419,276.539 334.846,272.499 330.843 L 268.707 327.086 267.610 322.843 C 267.006 320.509,266.293 317.202,266.026 315.494 C 265.454 311.836,264.265 308.740,262.600 306.566 C 261.023 304.507,257.535 300.956,256.893 300.755 C 256.195 300.535,254.185 294.443,253.610 290.800 C 252.567 284.201,248.042 276.556,244.515 275.436 C 243.668 275.168,241.409 268.712,241.003 265.400 C 240.616 262.241,239.286 258.648,237.877 256.955 C 237.164 256.100,236.076 254.718,235.458 253.884 C 234.841 253.051,233.639 251.908,232.787 251.344 C 231.030 250.181,229.289 245.691,228.442 240.140 C 227.964 237.006,226.847 234.063,225.429 232.200 C 224.926 231.540,224.393 230.614,224.244 230.142 C 223.982 229.314,221.118 226.432,219.333 225.199 C 218.741 224.790,217.938 223.021,216.805 219.627 C 215.892 216.891,214.904 214.191,214.610 213.627 C 212.930 210.398,207.754 208.250,203.952 209.203 M208.637 217.342 C 209.697 218.671,212.140 224.026,214.208 229.558 C 215.251 232.346,216.405 234.214,220.206 239.266 C 222.348 242.112,224.107 246.198,226.273 253.358 C 227.270 256.654,228.745 259.378,231.038 262.157 C 234.264 266.069,235.218 267.916,237.715 275.091 C 240.465 282.992,240.874 283.809,243.971 287.600 C 246.954 291.251,247.422 292.192,250.193 300.126 C 252.834 307.688,253.787 309.631,256.125 312.232 C 259.118 315.561,260.345 318.108,262.387 325.234 C 264.397 332.247,265.637 335.004,268.011 337.742 C 271.739 342.040,272.268 343.053,274.789 350.705 C 277.396 358.623,278.286 360.335,282.125 364.829 C 284.511 367.620,285.866 370.621,288.362 378.644 C 289.764 383.149,291.109 385.651,293.823 388.800 C 296.920 392.394,297.491 393.515,299.825 400.585 C 302.539 408.808,302.849 409.429,306.445 413.868 C 309.690 417.874,309.963 418.425,311.855 424.787 C 314.102 432.342,314.314 432.946,315.410 434.907 C 315.988 435.941,317.523 437.958,318.821 439.391 C 321.783 442.660,326.000 452.140,326.000 455.531 C 326.000 456.834,328.813 461.552,331.140 464.151 C 334.555 467.966,335.225 469.404,338.192 479.284 C 339.467 483.527,340.565 485.551,343.268 488.636 C 347.019 492.917,347.576 494.117,351.140 505.603 C 352.230 509.117,353.506 511.286,356.389 514.527 C 359.715 518.267,364.534 529.287,363.823 531.527 C 363.441 532.732,360.321 535.620,358.200 536.733 L 356.200 537.782 325.600 537.927 C 278.692 538.151,278.416 538.102,274.795 528.988 C 273.086 524.686,272.257 523.151,269.185 518.600 C 266.354 514.406,265.228 512.024,263.422 506.400 C 261.523 500.488,257.536 492.736,255.187 490.387 C 254.120 489.320,251.327 485.451,249.831 482.968 C 249.052 481.674,247.602 480.066,246.401 479.164 L 244.320 477.600 206.022 477.600 C 162.770 477.600,166.858 477.313,159.690 480.858 C 154.421 483.463,150.940 488.365,148.829 496.151 C 147.796 499.959,145.567 504.650,143.927 506.467 C 140.681 510.061,138.416 514.552,136.458 521.276 C 133.604 531.073,131.023 533.932,122.432 536.811 L 118.707 538.059 86.854 537.909 L 55.000 537.760 52.200 536.834 C 48.666 535.665,45.402 534.006,43.600 532.463 L 42.200 531.263 43.838 529.532 C 46.995 526.193,49.481 521.547,50.757 516.600 C 52.392 510.263,53.569 507.796,56.613 504.334 C 59.368 501.199,62.105 495.788,63.397 490.920 C 64.773 485.735,66.296 482.668,69.244 479.143 C 72.375 475.399,74.537 471.171,75.592 466.730 C 77.428 458.997,78.478 456.694,81.766 453.190 C 84.518 450.258,86.788 446.042,87.792 442.000 C 89.631 434.599,90.866 431.928,94.068 428.431 C 95.362 427.018,96.947 424.942,97.590 423.817 C 98.677 421.918,99.207 420.421,101.633 412.400 C 103.108 407.523,103.751 406.343,106.523 403.434 C 109.816 399.977,111.612 396.447,113.156 390.400 C 115.069 382.910,115.755 381.444,118.954 378.021 C 122.335 374.400,124.039 371.202,125.359 366.000 C 127.187 358.790,128.250 356.522,131.398 353.115 C 134.783 349.451,136.391 346.411,137.805 341.000 C 139.762 333.509,140.733 331.384,143.536 328.452 C 147.414 324.398,148.965 321.492,150.398 315.600 C 152.148 308.408,153.146 306.167,156.053 302.912 C 159.544 299.003,160.878 296.423,162.791 289.880 C 164.932 282.557,165.846 280.686,168.987 277.201 C 172.211 273.622,173.517 271.146,175.004 265.800 C 177.152 258.069,178.234 255.864,181.777 251.985 C 184.666 248.820,186.155 245.736,187.759 239.588 C 190.246 230.054,190.424 229.736,195.899 225.077 C 197.825 223.438,200.030 221.243,200.800 220.199 C 204.229 215.550,206.536 214.709,208.637 217.342 M204.126 358.512 C 201.621 361.099,199.173 364.151,196.675 367.800 C 195.620 369.340,194.049 371.500,193.183 372.600 C 190.783 375.648,189.330 379.086,187.555 385.926 C 185.030 395.649,184.378 397.250,180.784 402.547 C 178.798 405.474,178.761 405.587,177.634 412.055 L 176.495 418.600 177.904 420.075 C 180.234 422.513,179.577 422.453,202.232 422.297 C 225.274 422.138,232.800 421.321,232.800 418.978 C 232.800 418.399,231.520 415.839,230.660 414.700 C 229.004 412.506,226.277 403.237,224.983 395.400 C 224.466 392.275,221.809 387.508,218.832 384.364 C 215.751 381.111,214.924 379.196,213.215 371.367 C 212.317 367.249,210.626 362.935,208.611 359.618 C 206.484 356.116,206.454 356.109,204.126 358.512 M207.549 366.153 C 208.484 368.214,208.758 369.504,208.974 372.853 C 209.480 380.730,209.642 381.770,210.676 383.800 C 211.903 386.208,213.320 387.417,216.334 388.626 C 218.047 389.314,218.925 389.981,219.933 391.362 L 221.266 393.188 221.486 399.572 C 221.727 406.571,221.427 408.622,219.782 411.228 L 218.790 412.800 206.229 412.800 L 193.668 412.800 192.017 410.924 C 189.215 407.741,189.028 407.050,189.970 403.358 C 190.414 401.621,190.970 398.580,191.206 396.600 C 191.442 394.620,191.798 392.370,191.997 391.600 C 192.196 390.830,192.651 388.493,193.008 386.407 C 193.761 382.005,193.827 381.901,196.811 380.395 C 200.516 378.524,203.200 374.120,203.200 369.910 C 203.200 369.081,205.867 363.600,206.270 363.600 C 206.337 363.600,206.913 364.749,207.549 366.153 " stroke="none" fill="#245444" fill-rule="evenodd"></path></g></svg>