<svg aria-hidden="true" style="position: absolute; width: 0; height: 0; overflow: hidden;" version="1.1" xmlns="http://www.w3.org/2000/svg" xmlns:xlink="http://www.w3.org/1999/xlink">
<defs>
<symbol id="icon-dawn" viewBox="0 0 24 24">
<path d="M12 18q2.484 0 4.242-1.758t1.758-4.242-1.758-4.242-4.242-1.758v12zM20.016 15.328v4.688h-4.688l-3.328 3.281-3.328-3.281h-4.688v-4.688l-3.281-3.328 3.281-3.328v-4.688h4.688l3.328-3.281 3.328 3.281h4.688v4.688l3.281 3.328z"></path>
</symbol>
<symbol id="icon-sun" viewBox="0 0 20 20">
<path d="M10 14c-2.209 0-4-1.791-4-4s1.791-4 4-4v0c2.209 0 4 1.791 4 4s-1.791 4-4 4v0zM9 1c0-0.552 0.448-1 1-1s1 0.448 1 1v0 2c0 0.552-0.448 1-1 1s-1-0.448-1-1v0-2zM15.65 2.94c0.184-0.215 0.456-0.35 0.76-0.35 0.552 0 1 0.448 1 1 0 0.303-0.135 0.575-0.348 0.758l-0.001 0.001-1.4 1.4c-0.184 0.215-0.456 0.35-0.76 0.35-0.552 0-1-0.448-1-1 0-0.303 0.135-0.575 0.348-0.758l0.001-0.001 1.4-1.4zM18.99 9c0.552 0 1 0.448 1 1s-0.448 1-1 1v0h-1.98c-0.552 0-1-0.448-1-1s0.448-1 1-1v0h1.98zM17.060 15.65c0.215 0.184 0.35 0.456 0.35 0.76 0 0.552-0.448 1-1 1-0.303 0-0.575-0.135-0.758-0.348l-0.001-0.001-1.4-1.4c-0.215-0.184-0.35-0.456-0.35-0.76 0-0.552 0.448-1 1-1 0.303 0 0.575 0.135 0.758 0.348l0.001 0.001 1.4 1.4zM11 18.99c0 0.552-0.448 1-1 1s-1-0.448-1-1v0-1.98c0-0.552 0.448-1 1-1s1 0.448 1 1v0 1.98zM4.35 17.060c-0.184 0.215-0.456 0.35-0.76 0.35-0.552 0-1-0.448-1-1 0-0.303 0.135-0.575 0.348-0.758l0.001-0.001 1.4-1.4c0.184-0.215 0.456-0.35 0.76-0.35 0.552 0 1 0.448 1 1 0 0.303-0.135 0.575-0.348 0.758l-0.001 0.001-1.4 1.4zM1.010 11c-0.552 0-1-0.448-1-1s0.448-1 1-1v0h1.98c0.552 0 1 0.448 1 1s-0.448 1-1 1v0h-1.98zM2.94 4.35c-0.215-0.184-0.35-0.456-0.35-0.76 0-0.552 0.448-1 1-1 0.303 0 0.575 0.135 0.758 0.348l0.001 0.001 1.4 1.4c0.215 0.184 0.35 0.456 0.35 0.76 0 0.552-0.448 1-1 1-0.303 0-0.575-0.135-0.758-0.348l-0.001-0.001-1.4-1.4z"></path>
</symbol>
<symbol id="icon-mail" viewBox="0 0 20 20">
<path d="M1.574 5.286c0.488 0.262 7.248 3.894 7.5 4.029s0.578 0.199 0.906 0.199c0.328 0 0.654-0.064 0.906-0.199s7.012-3.767 7.5-4.029c0.489-0.263 0.951-1.286 0.054-1.286h-16.919c-0.897 0-0.435 1.023 0.053 1.286zM18.613 7.489c-0.555 0.289-7.387 3.849-7.727 4.027s-0.578 0.199-0.906 0.199-0.566-0.021-0.906-0.199-7.133-3.739-7.688-4.028c-0.39-0.204-0.386 0.035-0.386 0.219s0 7.293 0 7.293c0 0.42 0.566 1 1 1h16c0.434 0 1-0.58 1-1 0 0 0-7.108 0-7.292s0.004-0.423-0.387-0.219z"></path>
</symbol>
<symbol id="icon-moon" viewBox="0 0 18 18">
<path d="M7.246 3.255c-0.251 0.828-0.322 1.71-0.198 2.597 0.366 2.63 2.455 4.723 5.080 5.089 0.282 0.040 0.568 0.060 0.85 0.060 0.599 0 1.184-0.087 1.742-0.257-0.674 2.215-2.642 3.926-4.973 4.21-0.254 0.031-0.51 0.047-0.762 0.047-1.713 0-3.349-0.738-4.486-2.024-1.152-1.304-1.669-2.987-1.457-4.739 0.284-2.335 1.992-4.307 4.204-4.982zM8.985 1c-0.362 0-0.731 0.024-1.104 0.075-3.543 0.48-6.388 3.364-6.82 6.92-0.592 4.867 3.184 9.005 7.924 9.005 0.33 0 0.665-0.020 1.003-0.062 3.549-0.433 6.428-3.283 6.907-6.833 0.052-0.383 0.076-0.761 0.075-1.134-0.002-0.583-0.482-0.972-0.996-0.972-0.209 0-0.424 0.065-0.614 0.207-0.665 0.498-1.489 0.793-2.383 0.793-0.188 0-0.38-0.013-0.574-0.040-1.732-0.242-3.137-1.649-3.378-3.385-0.155-1.115 0.149-2.156 0.751-2.963 0.415-0.657 0.025-1.609-0.764-1.612-0.009 0-0.018 0-0.028 0v0z"></path>
</symbol>
<symbol id="icon-node-dot-js" viewBox="0 0 18 18">
<path fill="#393" style="fill: var(--color1, #393)" d="M8.999 18c-0.241 0-0.481-0.063-0.692-0.185l-2.202-1.303c-0.328-0.184-0.168-0.249-0.060-0.287 0.439-0.152 0.527-0.188 0.996-0.453 0.049-0.028 0.113-0.017 0.163 0.013l1.692 1.004c0.062 0.034 0.148 0.034 0.204 0l6.596-3.807c0.062-0.035 0.1-0.106 0.1-0.179v-7.613c0-0.074-0.040-0.144-0.103-0.181l-6.593-3.804c-0.061-0.035-0.142-0.035-0.203 0l-6.592 3.805c-0.064 0.037-0.104 0.109-0.104 0.181v7.613c0 0.073 0.041 0.142 0.104 0.176l1.807 1.044c0.98 0.49 1.581-0.087 1.581-0.667v-7.516c0-0.107 0.085-0.19 0.192-0.19h0.836c0.104 0 0.191 0.084 0.191 0.19v7.516c0 1.309-0.712 2.059-1.953 2.059-0.381 0-0.682 0-1.52-0.413l-1.731-0.995c-0.427-0.247-0.692-0.709-0.692-1.203v-7.613c0-0.494 0.265-0.956 0.692-1.202l6.596-3.811c0.418-0.236 0.972-0.236 1.386 0l6.596 3.811c0.428 0.247 0.693 0.708 0.693 1.202v7.613c0 0.494-0.265 0.955-0.693 1.203l-6.596 3.808c-0.21 0.122-0.449 0.185-0.694 0.185zM14.324 10.495c0-1.425-0.963-1.804-2.99-2.072-2.048-0.271-2.257-0.411-2.257-0.89 0-0.396 0.176-0.925 1.693-0.925 1.355 0 1.855 0.292 2.060 1.205 0.018 0.086 0.097 0.149 0.185 0.149h0.856c0.053 0 0.104-0.023 0.139-0.061 0.036-0.040 0.055-0.092 0.050-0.147-0.133-1.574-1.178-2.307-3.291-2.307-1.881 0-3.003 0.793-3.003 2.125 0 1.444 1.116 1.843 2.921 2.021 2.16 0.212 2.327 0.527 2.327 0.952 0 0.737-0.592 1.052-1.981 1.052-1.745 0-2.129-0.438-2.258-1.306-0.015-0.093-0.095-0.161-0.19-0.161h-0.853c-0.106 0-0.19 0.084-0.19 0.19 0 1.111 0.604 2.436 3.491 2.436 2.091 0.001 3.29-0.822 3.29-2.26z"></path>
</symbol>
<symbol id="icon-mongodb" viewBox="0 0 32 32">
<path fill="#47a248" style="fill: var(--color2, #47a248)" d="M22.907 12.691c-1.684-7.413-5.656-9.849-6.083-10.781-0.469-0.657-0.977-1.909-0.977-1.909-0.003 0.025-0.005 0.041-0.007 0.065v0.017h-0.001c-0.003 0.020-0.004 0.033-0.005 0.052v0.020h-0.003c0 0.013-0.003 0.024-0.003 0.035v0.035h-0.004c-0.001 0.011-0.001 0.024-0.004 0.033v0.028h-0.003c0 0.009 0 0.020-0.003 0.028v0.027h-0.003c0 0.013-0.001 0.029-0.003 0.043v0.003c-0.004 0.023-0.008 0.045-0.012 0.067v0.011h-0.003c-0.001 0.005-0.004 0.011-0.004 0.016v0.023h-0.004v0.029h-0.007v0.024h-0.007v0.028h-0.005v0.025h-0.005v0.023h-0.008v0.019h-0.005v0.024h-0.005v0.019h-0.007v0.017h-0.004v0.020h-0.005c-0.001 0.001-0.001 0.004-0.001 0.005v0.013h-0.004c-0.001 0.003-0.001 0.005-0.001 0.008v0.008h-0.003c-0.001 0.004-0.003 0.011-0.003 0.013-0.004 0.009-0.009 0.019-0.013 0.028v0.003c-0.003 0.003-0.005 0.007-0.007 0.009v0.011h-0.005v0.011h-0.007v0.011h-0.004v0.013h-0.008v0.019h-0.005v0.005h-0.005v0.011h-0.005v0.015h-0.005v0.011h-0.008v0.015h-0.005v0.011h-0.007v0.011h-0.004v0.013h-0.007v0.011h-0.005v0.008h-0.005v0.011h-0.008v0.012h-0.005v0.008h-0.007v0.011h-0.005v0.015h-0.007v0.005h-0.004v0.011h-0.008v0.005h-0.005v0.013h-0.005v0.005h-0.005v0.011h-0.007v0.008h-0.004l-0.003 0.005v0.005h-0.003c-0.001 0.003-0.003 0.003-0.003 0.005v0.001h-0.001c-0.001 0.004-0.003 0.007-0.005 0.009v0.004h-0.001c-0.007 0.008-0.011 0.016-0.016 0.024v0.001c-0.003 0.003-0.009 0.008-0.012 0.013v0.003h-0.001c-0.001 0.001-0.004 0.003-0.004 0.004v0.004h-0.003l-0.004 0.004v0.001h-0.001c0 0.001-0.003 0.003-0.004 0.005v0.005h-0.004l-0.003 0.003v0.003h-0.003c0 0.003-0.003 0.003-0.003 0.004v0.004h-0.005c0 0.001-0.001 0.003-0.003 0.004v0.008h-0.004v0.005h-0.005v0.008h-0.005v0.011h-0.007v-0.011h-0.007v0.005h-0.005v0.008h-0.007v0.011h-0.007v0.005h-0.005v0.008h-0.005v0.005h-0.005v0.011h-0.008v0.005h-0.005v0.008h-0.007v0.005h-0.005v0.007h-0.007v0.013h-0.003v0.005h-0.008v0.007h-0.005v0.003h-0.005v0.005h-0.007v0.013h-0.005v0.005h-0.007v0.005h-0.005v0.008h-0.007v0.005h-0.007v0.005h-0.005v0.005h-0.005v0.013h-0.005v0.007h-0.008v0.005h-0.005v0.005h-0.007v0.008h-0.005v0.005h-0.007v0.009h-0.005v0.005h-0.008v0.008h-0.003v0.005h-0.005v0.005h-0.007v0.005h-0.005v0.008h-0.007v0.005h-0.004c-0.001 0.001-0.001 0.003-0.001 0.003v0.003h-0.003l-0.005 0.005c0 0-0.003 0.003-0.005 0.004v0.008h-0.005v0.007h-0.005v0.005h-0.005v0.005h-0.004l-0.004 0.004v0.004h-0.003l-0.003 0.003v0.004h-0.003c-0.007 0.008-0.009 0.013-0.019 0.021-0.003 0.003-0.011 0.009-0.016 0.013-0.016 0.011-0.036 0.028-0.052 0.043-0.011 0.007-0.021 0.016-0.029 0.023v0.001h-0.001c-0.021 0.017-0.041 0.033-0.065 0.052v0.001c-0.032 0.027-0.063 0.052-0.099 0.083v-0.001h-0.003c-0.076 0.063-0.156 0.133-0.248 0.212v0.001h-0.001c-0.225 0.197-0.493 0.451-0.793 0.757l-0.025 0.025c-1.813 1.876-4.671 5.785-4.972 12.103-0.027 0.523-0.021 1.031 0.008 1.525v0.012c0.145 2.489 0.927 4.615 1.904 6.341v0.001c0.389 0.688 0.809 1.313 1.235 1.873v0.001c1.469 1.94 2.969 3.089 3.352 3.368 0.588 1.364 0.533 3.705 0.533 3.705l0.859 0.287c0 0-0.175-2.268 0.071-3.363 0.076-0.343 0.256-0.635 0.465-0.883 0.141-0.1 0.56-0.401 1.063-0.86 0.024-0.025 0.037-0.048 0.059-0.072 2.028-1.891 5.816-6.547 4.517-14.132z"></path>
</symbol>
<symbol id="icon-node-dot-js" viewBox="0 0 32 32">
<path fill="#393" style="fill: var(--color1, #393)" d="M15.997 32c-0.428 0-0.855-0.112-1.229-0.329l-3.915-2.316c-0.584-0.327-0.299-0.443-0.107-0.511 0.78-0.271 0.937-0.333 1.771-0.805 0.087-0.049 0.201-0.031 0.291 0.023l3.008 1.785c0.109 0.060 0.263 0.060 0.363 0l11.727-6.768c0.109-0.063 0.179-0.188 0.179-0.317v-13.533c0-0.132-0.071-0.256-0.183-0.323l-11.721-6.763c-0.108-0.063-0.252-0.063-0.361 0l-11.719 6.764c-0.113 0.065-0.185 0.193-0.185 0.321v13.533c0 0.129 0.072 0.252 0.185 0.313l3.212 1.856c1.743 0.872 2.811-0.155 2.811-1.187v-13.361c0-0.189 0.152-0.337 0.341-0.337h1.487c0.185 0 0.34 0.149 0.34 0.337v13.361c0 2.327-1.267 3.66-3.472 3.66-0.677 0-1.212 0-2.701-0.735l-3.077-1.769c-0.76-0.439-1.229-1.26-1.229-2.139v-13.533c0-0.879 0.471-1.7 1.229-2.137l11.727-6.776c0.743-0.42 1.728-0.42 2.464 0l11.725 6.776c0.76 0.439 1.232 1.259 1.232 2.137v13.533c0 0.879-0.472 1.697-1.232 2.139l-11.725 6.771c-0.373 0.217-0.799 0.329-1.233 0.329zM25.465 18.657c0-2.533-1.712-3.208-5.316-3.684-3.641-0.481-4.012-0.731-4.012-1.583 0-0.704 0.313-1.644 3.011-1.644 2.409 0 3.297 0.519 3.663 2.143 0.032 0.153 0.172 0.265 0.329 0.265h1.521c0.095 0 0.184-0.041 0.248-0.108 0.064-0.072 0.099-0.164 0.089-0.261-0.236-2.797-2.095-4.101-5.851-4.101-3.344 0-5.339 1.411-5.339 3.777 0 2.567 1.984 3.276 5.193 3.593 3.84 0.376 4.137 0.937 4.137 1.692 0 1.311-1.052 1.869-3.523 1.869-3.103 0-3.785-0.779-4.015-2.323-0.027-0.165-0.168-0.287-0.337-0.287h-1.516c-0.188 0-0.339 0.149-0.339 0.337 0 1.976 1.075 4.331 6.207 4.331 3.717 0.001 5.848-1.461 5.848-4.017z"></path>
</symbol>
<symbol id="icon-react" viewBox="0 0 32 32">
<path fill="#61dafb" style="fill: var(--color3, #61dafb)" d="M16 13.148c-1.575 0-2.852 1.277-2.852 2.852s1.277 2.852 2.852 2.852v0c1.575 0 2.852-1.277 2.852-2.852s-1.277-2.852-2.852-2.852v0zM8.011 21.673l-0.629-0.16c-4.691-1.185-7.381-3.197-7.381-5.519s2.691-4.333 7.381-5.519l0.629-0.159 0.177 0.624c0.545 1.86 1.163 3.443 1.899 4.957l-0.082-0.186 0.135 0.284-0.135 0.284c-0.656 1.329-1.275 2.912-1.761 4.551l-0.056 0.22zM7.089 11.933c-3.565 1.001-5.753 2.533-5.753 4.061 0 1.527 2.188 3.059 5.753 4.061 0.512-1.62 1.046-2.965 1.662-4.263l-0.086 0.202c-0.531-1.098-1.066-2.443-1.511-3.828l-0.065-0.234zM23.989 21.673l-0.177-0.625c-0.544-1.859-1.162-3.441-1.9-4.954l0.081 0.184-0.135-0.284 0.135-0.284c0.656-1.329 1.275-2.911 1.762-4.55l0.056-0.221 0.177-0.624 0.631 0.159c4.689 1.185 7.38 3.197 7.38 5.52s-2.691 4.333-7.38 5.519zM23.335 15.995c0.64 1.385 1.169 2.747 1.576 4.061 3.567-1.003 5.753-2.535 5.753-4.061 0-1.528-2.188-3.059-5.753-4.061-0.511 1.619-1.045 2.963-1.662 4.262l0.086-0.2zM7.080 11.927l-0.177-0.623c-1.319-4.648-0.919-7.979 1.097-9.141 1.977-1.141 5.152 0.207 8.479 3.621l0.453 0.465-0.453 0.465c-1.146 1.19-2.207 2.482-3.162 3.853l-0.068 0.103-0.18 0.257-0.313 0.027c-1.875 0.151-3.596 0.439-5.264 0.86l0.218-0.047zM9.608 3.087c-0.357 0-0.673 0.077-0.94 0.231-1.325 0.764-1.56 3.42-0.647 7.004 1.21-0.285 2.681-0.521 4.18-0.658l0.131-0.010c0.894-1.264 1.792-2.37 2.756-3.414l-0.020 0.022c-2.080-2.025-4.049-3.175-5.46-3.175zM22.393 30.236c-0.001 0-0.001 0 0 0-1.9 0-4.34-1.431-6.872-4.031l-0.453-0.465 0.453-0.465c1.146-1.19 2.206-2.482 3.16-3.854l0.068-0.103 0.18-0.257 0.312-0.027c1.875-0.15 3.597-0.438 5.267-0.858l-0.218 0.046 0.629-0.159 0.179 0.624c1.316 4.645 0.917 7.977-1.099 9.139-0.449 0.259-0.988 0.411-1.562 0.411-0.016 0-0.031-0-0.047-0l0.002 0zM16.932 25.728c2.080 2.025 4.049 3.175 5.46 3.175h0.001c0.356 0 0.673-0.077 0.939-0.231 1.325-0.764 1.561-3.421 0.647-7.005-1.212 0.286-2.682 0.522-4.182 0.658l-0.13 0.010c-0.893 1.265-1.791 2.371-2.755 3.416l0.020-0.022zM24.92 11.927l-0.629-0.159c-1.453-0.376-3.175-0.664-4.939-0.806l-0.111-0.007-0.312-0.027-0.18-0.257c-1.021-1.474-2.082-2.766-3.237-3.966l0.009 0.010-0.453-0.465 0.453-0.465c3.325-3.413 6.499-4.761 8.479-3.621 2.016 1.163 2.416 4.493 1.099 9.14zM19.667 9.653c1.523 0.139 2.969 0.364 4.312 0.668 0.915-3.584 0.679-6.24-0.647-7.004-1.317-0.761-3.793 0.405-6.4 2.944 0.943 1.022 1.841 2.128 2.666 3.289l0.069 0.103zM9.608 30.236c-0.014 0-0.030 0-0.046 0-0.574 0-1.113-0.152-1.577-0.419l0.015 0.008c-2.016-1.161-2.416-4.492-1.097-9.139l0.176-0.624 0.629 0.159c1.54 0.388 3.239 0.661 5.047 0.812l0.313 0.027 0.179 0.257c1.022 1.475 2.083 2.767 3.239 3.967l-0.010-0.010 0.453 0.465-0.453 0.465c-2.531 2.6-4.971 4.031-6.868 4.031zM8.021 21.667c-0.915 3.584-0.679 6.241 0.647 7.005 1.316 0.751 3.791-0.407 6.4-2.944-0.943-1.022-1.841-2.129-2.667-3.29l-0.069-0.103c-1.629-0.146-3.099-0.382-4.534-0.711l0.224 0.043zM16 22.504c-1.097 0-2.225-0.048-3.355-0.141l-0.313-0.027-0.18-0.257c-0.544-0.768-1.139-1.691-1.697-2.639l-0.103-0.19c-0.452-0.758-0.971-1.732-1.45-2.728l-0.105-0.243-0.133-0.284 0.133-0.284c0.584-1.239 1.102-2.212 1.658-3.161l-0.103 0.191c0.552-0.955 1.159-1.907 1.8-2.829l0.18-0.257 0.313-0.027c1.005-0.090 2.174-0.142 3.355-0.142s2.35 0.052 3.505 0.153l-0.15-0.011 0.312 0.027 0.179 0.257c1.177 1.666 2.294 3.567 3.252 5.56l0.104 0.24 0.135 0.284-0.135 0.284c-1.058 2.232-2.176 4.133-3.439 5.925l0.083-0.125-0.179 0.257-0.312 0.027c-1.129 0.093-2.259 0.141-3.356 0.141zM13.071 21.059c1.973 0.148 3.885 0.148 5.86 0 1.004-1.445 1.978-3.104 2.827-4.836l0.101-0.228c-0.947-1.958-1.922-3.617-3.012-5.19l0.083 0.126c-0.877-0.071-1.898-0.111-2.929-0.111s-2.052 0.040-3.063 0.119l0.134-0.008c-1.008 1.447-1.983 3.106-2.83 4.84l-0.099 0.224c0.951 1.96 1.926 3.619 3.014 5.193l-0.085-0.13z"></path>
</symbol>
<symbol id="icon-javascript" viewBox="0 0 32 32">
<path fill="#f7df1e" style="fill: var(--color4, #f7df1e)" d="M0 0h32v32h-32zM29.379 24.368c-0.233-1.46-1.184-2.687-4.004-3.831-0.981-0.46-2.072-0.78-2.396-1.52-0.121-0.44-0.14-0.68-0.061-0.94 0.2-0.861 1.22-1.12 2.020-0.88 0.52 0.16 1 0.56 1.301 1.2 1.379-0.901 1.379-0.901 2.34-1.5-0.36-0.56-0.539-0.801-0.781-1.040-0.84-0.94-1.959-1.42-3.779-1.379l-0.94 0.119c-0.901 0.22-1.76 0.7-2.28 1.34-1.52 1.721-1.081 4.721 0.759 5.961 1.82 1.36 4.481 1.659 4.821 2.94 0.32 1.56-1.16 2.060-2.621 1.88-1.081-0.24-1.68-0.781-2.34-1.781l-2.44 1.401c0.28 0.64 0.6 0.919 1.080 1.479 2.32 2.341 8.12 2.221 9.161-1.339 0.039-0.12 0.32-0.94 0.099-2.2zM17.401 14.708h-2.997c0 2.584-0.012 5.152-0.012 7.74 0 1.643 0.084 3.151-0.184 3.615-0.44 0.919-1.573 0.801-2.088 0.64-0.528-0.261-0.796-0.621-1.107-1.14-0.084-0.14-0.147-0.261-0.169-0.261l-2.433 1.5c0.407 0.84 1 1.563 1.765 2.023 1.14 0.68 2.672 0.9 4.276 0.54 1.044-0.301 1.944-0.921 2.415-1.881 0.68-1.24 0.536-2.76 0.529-4.461 0.016-2.739 0-5.479 0-8.239z"></path>
</symbol>
<symbol id="icon-tailwindcss" viewBox="0 0 32 32">
<path fill="#38b2ac" style="fill: var(--color5, #38b2ac)" d="M16.001 6.4c-4.267 0-6.933 2.133-8 6.4 1.6-2.133 3.467-2.933 5.6-2.4 1.217 0.304 2.087 1.187 3.051 2.165 1.569 1.592 3.384 3.435 7.349 3.435 4.267 0 6.933-2.133 8-6.4-1.6 2.133-3.467 2.933-5.6 2.4-1.217-0.304-2.087-1.187-3.051-2.165-1.568-1.592-3.383-3.435-7.349-3.435zM8.001 16c-4.267 0-6.933 2.133-8 6.4 1.6-2.133 3.467-2.933 5.6-2.4 1.217 0.304 2.087 1.187 3.051 2.165 1.569 1.592 3.384 3.435 7.349 3.435 4.267 0 6.933-2.133 8-6.4-1.6 2.133-3.467 2.933-5.6 2.4-1.217-0.304-2.087-1.187-3.051-2.165-1.568-1.592-3.383-3.435-7.349-3.435z"></path>
</symbol>
<symbol id="icon-link" viewBox="0 0 32 32">
<path d="M13.757 19.868c-0.416 0-0.832-0.159-1.149-0.476-2.973-2.973-2.973-7.81 0-10.783l6-6c1.44-1.44 3.355-2.233 5.392-2.233s3.951 0.793 5.392 2.233c2.973 2.973 2.973 7.81 0 10.783l-2.743 2.743c-0.635 0.635-1.663 0.635-2.298 0s-0.635-1.663 0-2.298l2.743-2.743c1.706-1.706 1.706-4.481 0-6.187-0.826-0.826-1.925-1.281-3.094-1.281s-2.267 0.455-3.094 1.281l-6 6c-1.706 1.706-1.706 4.481 0 6.187 0.635 0.635 0.635 1.663 0 2.298-0.317 0.317-0.733 0.476-1.149 0.476z"></path>
<path d="M8 31.625c-2.037 0-3.952-0.793-5.392-2.233-2.973-2.973-2.973-7.81 0-10.783l2.743-2.743c0.635-0.635 1.664-0.635 2.298 0s0.635 1.663 0 2.298l-2.743 2.743c-1.706 1.706-1.706 4.481 0 6.187 0.826 0.826 1.925 1.281 3.094 1.281s2.267-0.455 3.094-1.281l6-6c1.706-1.706 1.706-4.481 0-6.187-0.635-0.635-0.635-1.663 0-2.298s1.663-0.635 2.298 0c2.973 2.973 2.973 7.81 0 10.783l-6 6c-1.44 1.44-3.355 2.233-5.392 2.233z"></path>
</symbol>
<symbol id="icon-arrow-right2" viewBox="0 0 32 32">
<path d="M19.414 27.414l10-10c0.781-0.781 0.781-2.047 0-2.828l-10-10c-0.781-0.781-2.047-0.781-2.828 0s-0.781 2.047 0 2.828l6.586 6.586h-19.172c-1.105 0-2 0.895-2 2s0.895 2 2 2h19.172l-6.586 6.586c-0.39 0.39-0.586 0.902-0.586 1.414s0.195 1.024 0.586 1.414c0.781 0.781 2.047 0.781 2.828 0z"></path>
</symbol>
<symbol id="icon-twitter" viewBox="0 0 32 32">
<path d="M32 7.075c-1.175 0.525-2.444 0.875-3.769 1.031 1.356-0.813 2.394-2.1 2.887-3.631-1.269 0.75-2.675 1.3-4.169 1.594-1.2-1.275-2.906-2.069-4.794-2.069-3.625 0-6.563 2.938-6.563 6.563 0 0.512 0.056 1.012 0.169 1.494-5.456-0.275-10.294-2.888-13.531-6.862-0.563 0.969-0.887 2.1-0.887 3.3 0 2.275 1.156 4.287 2.919 5.463-1.075-0.031-2.087-0.331-2.975-0.819 0 0.025 0 0.056 0 0.081 0 3.181 2.263 5.838 5.269 6.437-0.55 0.15-1.131 0.231-1.731 0.231-0.425 0-0.831-0.044-1.237-0.119 0.838 2.606 3.263 4.506 6.131 4.563-2.25 1.762-5.075 2.813-8.156 2.813-0.531 0-1.050-0.031-1.569-0.094 2.913 1.869 6.362 2.95 10.069 2.95 12.075 0 18.681-10.006 18.681-18.681 0-0.287-0.006-0.569-0.019-0.85 1.281-0.919 2.394-2.075 3.275-3.394z"></path>
</symbol>
<symbol id="icon-github" viewBox="0 0 32 32">
<path d="M16 0.395c-8.836 0-16 7.163-16 16 0 7.069 4.585 13.067 10.942 15.182 0.8 0.148 1.094-0.347 1.094-0.77 0-0.381-0.015-1.642-0.022-2.979-4.452 0.968-5.391-1.888-5.391-1.888-0.728-1.849-1.776-2.341-1.776-2.341-1.452-0.993 0.11-0.973 0.11-0.973 1.606 0.113 2.452 1.649 2.452 1.649 1.427 2.446 3.743 1.739 4.656 1.33 0.143-1.034 0.558-1.74 1.016-2.14-3.554-0.404-7.29-1.777-7.29-7.907 0-1.747 0.625-3.174 1.649-4.295-0.166-0.403-0.714-2.030 0.155-4.234 0 0 1.344-0.43 4.401 1.64 1.276-0.355 2.645-0.532 4.005-0.539 1.359 0.006 2.729 0.184 4.008 0.539 3.054-2.070 4.395-1.64 4.395-1.64 0.871 2.204 0.323 3.831 0.157 4.234 1.026 1.12 1.647 2.548 1.647 4.295 0 6.145-3.743 7.498-7.306 7.895 0.574 0.497 1.085 1.47 1.085 2.963 0 2.141-0.019 3.864-0.019 4.391 0 0.426 0.288 0.925 1.099 0.768 6.354-2.118 10.933-8.113 10.933-15.18 0-8.837-7.164-16-16-16z"></path>
</symbol>
<symbol id="icon-linkedin" viewBox="0 0 32 32">
<path d="M29 0h-26c-1.65 0-3 1.35-3 3v26c0 1.65 1.35 3 3 3h26c1.65 0 3-1.35 3-3v-26c0-1.65-1.35-3-3-3zM12 26h-4v-14h4v14zM10 10c-1.106 0-2-0.894-2-2s0.894-2 2-2c1.106 0 2 0.894 2 2s-0.894 2-2 2zM26 26h-4v-8c0-1.106-0.894-2-2-2s-2 0.894-2 2v8h-4v-14h4v2.481c0.825-1.131 2.087-2.481 3.5-2.481 2.488 0 4.5 2.238 4.5 5v9z"></path>
</symbol>
<symbol id="icon-git" viewBox="0 0 32 32">
<path fill="#f05032" style="fill: var(--color1, #f05032)" d="M31.395 14.573l-13.972-13.971c-0.805-0.804-2.109-0.804-2.917 0l-2.895 2.9 3.68 3.68c0.86-0.287 1.839-0.093 2.519 0.588 0.688 0.687 0.877 1.677 0.584 2.533l3.544 3.547c0.86-0.297 1.849-0.104 2.533 0.58 0.961 0.96 0.961 2.512 0 3.472-0.959 0.959-2.508 0.959-3.467 0-0.719-0.721-0.899-1.783-0.539-2.661l-3.319-3.301v8.7c0.235 0.115 0.456 0.271 0.651 0.464 0.951 0.961 0.951 2.511 0 3.467-0.959 0.961-2.519 0.961-3.479 0-0.959-0.959-0.959-2.505 0-3.464 0.243-0.24 0.516-0.421 0.807-0.541v-8.785c-0.289-0.121-0.565-0.296-0.8-0.535-0.727-0.727-0.901-1.789-0.528-2.679l-3.616-3.633-9.581 9.575c-0.8 0.807-0.8 2.112 0 2.919l13.973 13.969c0.805 0.805 2.109 0.805 2.915 0l13.907-13.907c0.807-0.804 0.807-2.109 0-2.916z"></path>
</symbol>
<symbol id="icon-css3" viewBox="0 0 32 32">
<path fill="#1572b6" style="fill: var(--color2, #1572b6)" d="M2 0h28l-2.547 28.751-11.484 3.249-11.42-3.251zM24.787 5.884l-17.573-0.004 0.284 3.496 13.5 0.003-0.34 3.621h-8.853l0.32 3.431h8.243l-0.488 4.697-3.88 1.072-3.941-1.080-0.251-2.813h-3.48l0.387 5.14 7.287 2.271 7.164-2.040z"></path>
</symbol>
<symbol id="icon-html5" viewBox="0 0 32 32">
<path fill="#e34f26" style="fill: var(--color3, #e34f26)" d="M2 0h28l-2.547 28.751-11.484 3.249-11.419-3.251zM11.375 13l-0.309-3.624 13.412 0.004 0.307-3.496-17.568-0.004 0.931 10.68h12.168l-0.435 4.568-3.88 1.072-3.94-1.080-0.251-2.813h-3.479l0.44 5.561 7.229 1.933 7.172-1.924 0.992-10.876z"></path>
</symbol>
<symbol id="icon-express" viewBox="0 0 48 48">
<path fill="#706f6f" style="fill: var(--color10, #706f6f)" d="M23.697,37.56h1.18c0.84,0,1.631-0.392,2.139-1.061l7.485-9.847l7.485,9.847	c0.508,0.668,1.299,1.061,2.139,1.061h1.18L35.756,25l9.121-12h-1.18c-0.84,0-1.631,0.392-2.139,1.061L34.5,23.347l-7.059-9.287	C26.933,13.392,26.142,13,25.302,13h-1.18l9.121,12L23.697,37.56z"/><path fill="#706f6f" d="M24,26v-3c0-6.675-5.945-11.961-12.829-10.852C5.812,13.011,2,17.857,2,23.284L2,24v2v0.142	c0,6.553,4.777,11.786,10.868,11.858c5.092,0.06,9.389-3.344,10.707-7.999h-1.028c-0.62,0-1.182,0.355-1.451,0.913	c-1.739,3.595-5.789,5.862-10.228,4.842C6.776,34.815,4,30.981,4,26.783V26H24z M4,23.71c0-4.708,2.804-8.557,6.924-9.478	C16.798,12.92,22,17.352,22,23v1H4V23.71z"></path>
</symbol>
<symbol id="icon-close" viewBox="0 0 20 20">
<path d="M10 1.6c-4.639 0-8.4 3.761-8.4 8.4s3.761 8.4 8.4 8.4 8.4-3.761 8.4-8.4c0-4.639-3.761-8.4-8.4-8.4zM14.789 13.061l-1.729 1.729-3.060-3.061-3.061 3.060-1.729-1.729 3.062-3.060-3.061-3.061 1.729-1.728 3.060 3.060 3.061-3.061 1.729 1.729-3.062 3.061 3.061 3.061z"></path>
</symbol>
<symbol id="icon-arrow-up" viewBox="0 0 24 28">
<path d="M20.062 13.984c0-0.266-0.094-0.516-0.281-0.703l-7.078-7.078c-0.187-0.187-0.438-0.281-0.703-0.281s-0.516 0.094-0.703 0.281l-7.078 7.078c-0.187 0.187-0.281 0.438-0.281 0.703s0.094 0.516 0.281 0.703l1.422 1.422c0.187 0.187 0.438 0.281 0.703 0.281s0.516-0.094 0.703-0.281l2.953-2.953v7.844c0 0.547 0.453 1 1 1h2c0.547 0 1-0.453 1-1v-7.844l2.953 2.953c0.187 0.187 0.438 0.297 0.703 0.297s0.516-0.109 0.703-0.297l1.422-1.422c0.187-0.187 0.281-0.438 0.281-0.703zM24 14c0 6.625-5.375 12-12 12s-12-5.375-12-12 5.375-12 12-12 12 5.375 12 12z"></path>
</symbol>
<symbol id="icon-heart" viewBox="0 0 32 32">
<path d="M29.193 5.265c-3.629-3.596-9.432-3.671-13.191-0.288-3.76-3.383-9.561-3.308-13.192 0.288-3.741 3.704-3.741 9.709 0 13.415 1.069 1.059 11.053 10.941 11.053 10.941 1.183 1.172 3.096 1.172 4.278 0 0 0 10.932-10.822 11.053-10.941 3.742-3.706 3.742-9.711-0.001-13.415zM27.768 17.268l-11.053 10.941c-0.393 0.391-1.034 0.391-1.425 0l-11.053-10.941c-2.95-2.92-2.95-7.671 0-10.591 2.844-2.815 7.416-2.914 10.409-0.222l1.356 1.22 1.355-1.22c2.994-2.692 7.566-2.594 10.41 0.222 2.95 2.919 2.95 7.67 0.001 10.591zM9.253 7.501c0.277 0 0.5 0.224 0.5 0.5s-0.224 0.5-0.5 0.5h-0.001c-1.794 0-3.249 1.455-3.249 3.249v0.001c0 0.276-0.224 0.5-0.5 0.5s-0.5-0.224-0.5-0.5v0c0-2.346 1.901-4.247 4.246-4.249 0.002 0 0.002-0.001 0.004-0.001z"></path>
</symbol>
<symbol id="icon-hashnode" viewBox="0 0 48 48">
<path d="M42.164,17.126L30.874,5.835c-3.781-3.781-9.967-3.781-13.748,0L5.836,17.126	c-3.781,3.781-3.781,9.967,0,13.748l11.291,11.291c3.781,3.781,9.967,3.781,13.748,0l11.291-11.291	C45.945,27.093,45.945,20.907,42.164,17.126z M24,31c-3.866,0-7-3.134-7-7c0-3.866,3.134-7,7-7s7,3.134,7,7	C31,27.866,27.866,31,24,31z"/>
</symbol>
</defs>
</svg>
